<?xml version="1.0" encoding="UTF-8" standalone="no"?>
<!DOCTYPE svg PUBLIC "-//W3C//DTD SVG 1.1//EN" "http://www.w3.org/Graphics/SVG/1.1/DTD/svg11.dtd">
<!-- Created with Vectornator (http://vectornator.io/) -->
<svg height="100%" stroke-miterlimit="10" style="fill-rule:nonzero;clip-rule:evenodd;stroke-linecap:round;stroke-linejoin:round;" version="1.1" viewBox="0 0 6000 6000" width="100%" xml:space="preserve" xmlns="http://www.w3.org/2000/svg" xmlns:vectornator="http://vectornator.io" xmlns:xlink="http://www.w3.org/1999/xlink">
<defs/>
<g id="Layer-2" vectornator:layerName="Layer 2">
<path d="M2449.59 2045.49C2447.92 2046.32 2446.24 2047.16 2444.57 2048" fill="#02577a" fill-rule="nonzero" opacity="1" stroke="none"/>
<path d="M1628 2864.08" fill="#02577a" fill-rule="nonzero" opacity="1" stroke="none"/>
<path d="M1629.1 2040.19L1627.98 2867.93L1865.33 3015.96L2212.91 2814.18L2833.97 3207.34L3809.84 2678.1L3489.85 2501.85L2836.96 2872.03L2538.64 2697.43L2538.64 2697.43L3150.29 2326.01L2866.39 2153.93L2866.39 2153.93L2866.39 2153.93L2241.97 2524.13L2225.61 2513.87L1947.8 2351.04L1884.68 2307.53L1895.32 1901.89L1895.32 1901.89L1895.32 1901.89L1895.32 1901.89L1629.1 2040.19Z" fill="#02577a" fill-rule="nonzero" opacity="1" stroke="none"/>
<path d="M1629.1 2040.19" fill="#02577a" fill-rule="nonzero" opacity="1" stroke="none"/>
<path d="M1629.1 2040.19" fill="#02577a" fill-rule="nonzero" opacity="1" stroke="none"/>
</g>
<g id="La_yer-3" vectornator:layerName="La_yer 3">
<path d="M1885.52 2295.91L3203.72 1564.3L2875.01 1368.25L2875.01 1368.25L1896.21 1900.03L1885.52 2295.91Z" fill="#d4f0fc" fill-rule="nonzero" opacity="1" stroke="none"/>
<path d="M1885.52 2295.91" fill="#d4f0fc" fill-rule="nonzero" opacity="1" stroke="none"/>
<path d="M3832.04 1945.82L3301.31 1623.16L3301.31 1623.16L2961.55 1814.01L3488.92 2136.27L3832.04 1945.82Z" fill="#d4f0fc" fill-rule="nonzero" opacity="1" stroke="none"/>
<path d="M3826.17 1946.62" fill="#d4f0fc" fill-rule="nonzero" opacity="1" stroke="none"/>
<path d="M3826.17 1946.62" fill="#d4f0fc" fill-rule="nonzero" opacity="1" stroke="none"/>
<path d="M3826.17 1946.62" fill="#d4f0fc" fill-rule="nonzero" opacity="1" stroke="none"/>
<path d="M1883.92 2386.05L2237.79 2190.31L2237.79 2190.31" fill="#d4f0fc" fill-rule="nonzero" opacity="1" stroke="none"/>
<path d="M1883.42 2386.5L2237.77 2190.81L2237.77 2190.81L2213.06 2814.84L2213.06 2814.84L2213.06 2814.84L3158.03 3417.49L3158.03 3417.49L2827.83 3594.22L1866.08 3018.2L1883.42 2386.5Z" fill="#d4f0fc" fill-rule="nonzero" opacity="1" stroke="none"/>
<path d="M1883.4 2386.72" fill="#d4f0fc" fill-rule="nonzero" opacity="1" stroke="none"/>
<path d="M1884.12 2386.45" fill="#d4f0fc" fill-rule="nonzero" opacity="1" stroke="none"/>
<path d="M3812.34 2677.57L2912.24 3164.16L2912.24 3164.16L3245.61 3370.53L3803.46 3072.08L3812.34 2677.57Z" fill="#d4f0fc" fill-rule="nonzero" opacity="1" stroke="none"/>
<path d="M3805.01 2679.22" fill="#d4f0fc" fill-rule="nonzero" opacity="1" stroke="none"/>
<path d="M2303.49 3836.49L2303.08 3796.92L2009.04 3796.06L2009.04 3796.06L2009 4127L2302.97 4127.03L2302.97 4127.03L2302.97 4127.03L2303.12 4086.37L2072.02 4086.83L2072.07 3982.27L2189.81 3981.24L2190.05 3942.4L2072.09 3941.89L2072.21 3836.15L2303.49 3836.49Z" fill="#d4f0fc" fill-rule="nonzero" opacity="1" stroke="none"/>
<path d="M2303.42 3836.39" fill="#d4f0fc" fill-rule="nonzero" opacity="1" stroke="none"/>
<path d="M4128.9 1046.6" fill="#d4f0fc" fill-rule="nonzero" opacity="1" stroke="none"/>
<path d="M4128.9 1046.6" fill="#d4f0fc" fill-rule="nonzero" opacity="1" stroke="none"/>
<path d="M2537 4016.94L2536.97 3974.05L2352.03 3974.01L2352.01 4016.98L2537 4016.94Z" fill="#d4f0fc" fill-rule="nonzero" opacity="1" stroke="none"/>
<path d="M2536.97 4016.95" fill="#d4f0fc" fill-rule="nonzero" opacity="1" stroke="none"/>
<path d="M2818.91 4014.18L2818.95 4085.99L2654.05 4086L2654.05 4086L2654 3837.05L2819.06 3836.94L2819.04 3909.96L2884.95 3909.92L2884.95 3909.92L2884.78 3839.11C2884.78 3839.11 2874.54 3801.02 2817.1 3796.02C2759.66 3791.02 2649.14 3796.77 2649.14 3796.77C2649.14 3796.77 2591.91 3804.42 2589.12 3839.96C2586.33 3875.5 2588.51 4083.16 2588.51 4083.16C2588.51 4083.16 2599.17 4123.06 2643.36 4125.54C2687.55 4128.02 2817.11 4127.61 2817.11 4127.61L2828.35 4127.11C2828.35 4127.11 2883.16 4118.67 2884.17 4084.23C2885.19 4049.79 2884.92 4014.07 2884.92 4014.07L2818.91 4014.18Z" fill="#d4f0fc" fill-rule="nonzero" opacity="1" stroke="none"/>
<path d="M2819.06 4014.23" fill="#d4f0fc" fill-rule="nonzero" opacity="1" stroke="none"/>
<path d="M2917.11 4127.9L3212.98 4127.97L3212.97 4087.06L2981.09 4086.98L2981.03 3982.02L3099.98 3981.99L3100 3941L2981.02 3941.99L2981.03 3836.02L3212.97 3836.95L3213.01 3796L2917.03 3796L2917.11 4127.9Z" fill="#d4f0fc" fill-rule="nonzero" opacity="1" stroke="none"/>
<path d="M2917.08 4127.89" fill="#d4f0fc" fill-rule="nonzero" opacity="1" stroke="none"/>
<path d="M3245.99 3796L3309.99 3796.02L3310.01 4086.96L3473.99 4087.04L3473.99 4127.99L3245.01 4128L3245.99 3796Z" fill="#d4f0fc" fill-rule="nonzero" opacity="1" stroke="none"/>
<path d="M3246.11 3796.26" fill="#d4f0fc" fill-rule="nonzero" opacity="1" stroke="none"/>
<path d="M3508.02 3796.01L3572.01 3796.01L3572.01 3796.01L3572.03 4086.97L3735.99 4087L3735.99 4126.97L3735.99 4126.97L3508.02 4127L3508.02 3796.01Z" fill="#d4f0fc" fill-rule="nonzero" opacity="1" stroke="none"/>
<path d="M3508.01 3796.04" fill="#d4f0fc" fill-rule="nonzero" opacity="1" stroke="none"/>
</g>
</svg>
